<?xml version="1.0" standalone="no"?>
<!DOCTYPE svg PUBLIC "-//W3C//DTD SVG 20010904//EN"
 "http://www.w3.org/TR/2001/REC-SVG-20010904/DTD/svg10.dtd">
<svg version="1.0" xmlns="http://www.w3.org/2000/svg"
 width="260.000000pt" height="260.000000pt" viewBox="0 0 260.000000 260.000000"
 preserveAspectRatio="xMidYMid meet">
<metadata>
Created by potrace 1.11, written by Peter Selinger 2001-2013
</metadata>
<g transform="translate(0.000000,260.000000) scale(0.100000,-0.100000)"
fill="#000000" stroke="none">
<path d="M0 1300 l0 -1300 1300 0 1300 0 0 1300 0 1300 -1300 0 -1300 0 0
-1300z m315 40 c10 -44 21 -80 25 -80 4 0 15 36 25 80 16 70 21 80 40 80 19 0
24 -10 40 -80 10 -44 21 -80 25 -80 4 0 15 36 24 80 17 77 19 80 46 80 l29 0
-15 -52 c-59 -202 -53 -189 -82 -186 -23 3 -28 10 -42 68 -9 36 -19 72 -22 80
-2 8 -13 -21 -24 -65 -18 -73 -22 -80 -46 -83 -29 -3 -23 -16 -82 186 l-15 52
28 0 c26 0 29 -4 46 -80z m551 64 c22 -10 39 -29 51 -55 l17 -39 66 0 66 0 17
39 c29 64 103 88 172 55 35 -16 65 -65 65 -104 0 -62 -60 -120 -125 -120 -42
0 -93 29 -107 61 -13 28 -15 29 -88 29 -73 0 -75 -1 -88 -29 -14 -32 -65 -61
-107 -61 -65 0 -125 58 -125 120 0 90 99 145 186 104z m754 -3 c50 -26 70 -85
50 -142 -20 -56 -63 -79 -147 -79 l-63 0 0 120 0 120 63 0 c41 0 74 -6 97 -19z
m380 -1 c0 -18 -7 -20 -60 -20 l-60 0 0 -30 c0 -30 1 -30 55 -30 48 0 55 -2
55 -20 0 -18 -7 -20 -55 -20 -54 0 -55 0 -55 -30 l0 -30 60 0 c53 0 60 -2 60
-20 0 -18 -7 -20 -85 -20 l-85 0 0 120 0 120 85 0 c78 0 85 -2 85 -20z m325
-5 c32 -31 32 -66 1 -102 l-24 -28 25 -42 25 -43 -29 0 c-23 0 -33 9 -55 45
-18 30 -34 45 -48 45 -17 0 -20 -6 -20 -45 0 -41 -2 -45 -25 -45 l-25 0 0 120
0 120 75 0 c67 0 79 -3 100 -25z"/>
<path d="M773 1370 c-19 -8 -43 -38 -43 -54 0 -3 34 -6 75 -6 41 0 75 4 75 9
0 18 -36 50 -60 55 -14 3 -35 1 -47 -4z"/>
<path d="M1163 1370 c-19 -8 -43 -38 -43 -54 0 -3 34 -6 75 -6 41 0 75 4 75 9
0 18 -36 50 -60 55 -14 3 -35 1 -47 -4z"/>
<path d="M740 1261 c0 -28 65 -46 99 -29 48 25 37 38 -33 38 -36 0 -66 -4 -66
-9z"/>
<path d="M1130 1261 c0 -28 65 -46 99 -29 48 25 37 38 -33 38 -36 0 -66 -4
-66 -9z"/>
<path d="M1510 1300 l0 -83 42 6 c105 14 105 140 0 154 l-42 6 0 -83z"/>
<path d="M2200 1345 c0 -33 2 -35 34 -35 47 0 66 9 66 31 0 23 -29 39 -69 39
-29 0 -31 -3 -31 -35z"/>
</g>
</svg>
