<?xml version="1.0" encoding="utf-8"?>
<!-- Generator: Adobe Illustrator 23.0.2, SVG Export Plug-In . SVG Version: 6.00 Build 0)  -->
<svg version="1.1" id="Слой_1" xmlns="http://www.w3.org/2000/svg" xmlns:xlink="http://www.w3.org/1999/xlink" x="0px" y="0px"
	 viewBox="0 0 44.7 44.7" style="enable-background:new 0 0 44.7 44.7;" xml:space="preserve">
<style type="text/css">
	.st0{fill:#231F20;}
</style>
<g>
	<path class="st0" d="M22.3,0C10,0,0,10,0,22.3c0,12.3,10,22.3,22.3,22.3c12.3,0,22.3-10,22.3-22.3C44.7,10,34.7,0,22.3,0L22.3,0z
		 M22.3,42.7C11.1,42.7,2,33.6,2,22.3C2,11.1,11.1,2,22.3,2c11.2,0,20.3,9.1,20.3,20.3C42.7,33.6,33.6,42.7,22.3,42.7L22.3,42.7z
		 M22.3,42.7"/>
	<path class="st0" d="M22.2,15.1c-0.8,0-1.5,0.7-1.5,1.5v17c0,0.8,0.7,1.5,1.5,1.5c0.8,0,1.5-0.7,1.5-1.5v-17
		C23.7,15.7,23,15.1,22.2,15.1L22.2,15.1z M22.2,15.1"/>
	<path class="st0" d="M24.1,10.9c0,1-0.8,1.8-1.8,1.8c-1,0-1.8-0.8-1.8-1.8c0-1,0.8-1.8,1.8-1.8C23.3,9.1,24.1,9.9,24.1,10.9
		L24.1,10.9z M24.1,10.9"/>
</g>
</svg>
