<?xml version="1.0" encoding="utf-8"?>
<!-- Generator: Adobe Illustrator 23.0.2, SVG Export Plug-In . SVG Version: 6.00 Build 0)  -->
<svg version="1.1" id="Слой_1" xmlns="http://www.w3.org/2000/svg" xmlns:xlink="http://www.w3.org/1999/xlink" x="0px" y="0px"
	 viewBox="0 0 24 24" style="enable-background:new 0 0 24 24;" xml:space="preserve">
<g>
	<path d="M16,11.5l-5-3.6c-0.2-0.1-0.4-0.2-0.6-0.1C10.2,8,10,8.2,10,8.4v7.3c0,0.2,0.1,0.4,0.3,0.5c0.1,0,0.2,0.1,0.3,0.1
		c0.1,0,0.2,0,0.4-0.1l5-3.6c0.2-0.1,0.3-0.3,0.3-0.5C16.2,11.8,16.1,11.7,16,11.5L16,11.5z M16,11.5"/>
	<path d="M12,0C5.4,0,0,5.4,0,12c0,6.6,5.4,12,12,12c6.6,0,12-5.4,12-12C24,5.4,18.7,0,12,0L12,0z M12,22C6.5,22,2,17.6,2,12
		C2,6.5,6.5,2,12,2c5.5,0,10,4.5,10,10C22,17.6,17.6,22,12,22L12,22z M12,22"/>
</g>
</svg>
