<?xml version="1.0" encoding="utf-8"?>
<!-- Generator: Adobe Illustrator 23.0.2, SVG Export Plug-In . SVG Version: 6.00 Build 0)  -->
<svg version="1.1" id="Слой_1" xmlns="http://www.w3.org/2000/svg" xmlns:xlink="http://www.w3.org/1999/xlink" x="0px" y="0px"
	 viewBox="0 0 19.2 20.8" style="enable-background:new 0 0 19.2 20.8;" xml:space="preserve">
<style type="text/css">
	.st0{fill-rule:evenodd;clip-rule:evenodd;}
</style>
<g>
	<path class="st0" d="M15.2,12.8c-1.4,0-2.7,0.7-3.4,1.8l-4.3-2.4C7.8,11.7,8,11.1,8,10.4C8,10,7.9,9.6,7.8,9.3l4.5-2.5
		C13,7.5,14,8,15.2,8c2.2,0,4-1.8,4-4s-1.8-4-4-4c-2.2,0-4,1.8-4,4c0,0.4,0.1,0.8,0.2,1.1L6.9,7.7C6.2,6.9,5.2,6.4,4,6.4
		c-2.2,0-4,1.8-4,4c0,2.2,1.8,4,4,4c0.9,0,1.7-0.3,2.4-0.8l0,0l4.8,2.8c0,0.1,0,0.3,0,0.4c0,2.2,1.8,4,4,4c2.2,0,4-1.8,4-4
		C19.2,14.6,17.4,12.8,15.2,12.8L15.2,12.8z M15.2,1.6c1.3,0,2.4,1.1,2.4,2.4c0,1.3-1.1,2.4-2.4,2.4c-1.3,0-2.4-1.1-2.4-2.4
		C12.8,2.7,13.9,1.6,15.2,1.6L15.2,1.6z M4,12.8c-1.3,0-2.4-1.1-2.4-2.4C1.6,9.1,2.7,8,4,8c1.3,0,2.4,1.1,2.4,2.4
		C6.4,11.7,5.3,12.8,4,12.8L4,12.8z M15.2,19.2c-1.3,0-2.4-1.1-2.4-2.4c0-1.3,1.1-2.4,2.4-2.4c1.3,0,2.4,1.1,2.4,2.4
		C17.6,18.1,16.5,19.2,15.2,19.2L15.2,19.2z M15.2,19.2"/>
</g>
</svg>
