<svg id="Слой_1" xmlns="http://www.w3.org/2000/svg" viewBox="0 0 44.7 44.7"><style>.st0{fill:#231f20}</style><path class="st0" d="M22.3 0C10 0 0 10 0 22.3s10 22.3 22.3 22.3 22.3-10 22.3-22.3C44.7 10 34.7 0 22.3 0zm0 42.7C11.1 42.7 2 33.6 2 22.3 2 11.1 11.1 2 22.3 2c11.2 0 20.3 9.1 20.3 20.3.1 11.3-9 20.4-20.3 20.4zm0 0"/><path class="st0" d="M22.2 15.1c-.8 0-1.5.7-1.5 1.5v17c0 .8.7 1.5 1.5 1.5s1.5-.7 1.5-1.5v-17c0-.9-.7-1.5-1.5-1.5zm0 0M24.1 10.9c0 1-.8 1.8-1.8 1.8s-1.8-.8-1.8-1.8.8-1.8 1.8-1.8 1.8.8 1.8 1.8zm0 0"/></svg>