<svg xmlns="http://www.w3.org/2000/svg" viewBox="0 0 217.5 332.8"><path d="M119.6 0H94.1C41.3 0 0 43 0 97.9v137c0 54.9 41.3 97.9 94.1 97.9h25.5c54 0 97.9-43.9 97.9-97.9v-137c0-54-43.9-97.9-97.9-97.9zm-11.8 51.3h2c3.1 0 5.6 2.5 5.6 5.6v39.9c0 3.1-2.5 5.6-5.6 5.6h-2c-3.1 0-5.6-2.5-5.6-5.6V56.9c0-3.1 2.5-5.6 5.6-5.6zm96.9 183.6c0 46.9-38.2 85.1-85.1 85.1H94.1c-45.6 0-81.3-37.4-81.3-85.1v-137c0-47.7 35.7-85.1 81.3-85.1h8.2v26.5c-7.5 2.3-12.9 9.3-12.9 17.6v39.9c0 8.2 5.4 15.2 12.9 17.6v32.9c0 3.5 2.9 6.4 6.4 6.4 3.5 0 6.4-2.9 6.4-6.4v-32.9c7.6-2.3 13.1-9.3 13.1-17.6V56.9c0-8.3-5.5-15.3-13.1-17.6V12.8h4.6c46.9 0 85.1 38.2 85.1 85.1v137zm0 0"/></svg>