<svg id="Слой_1" xmlns="http://www.w3.org/2000/svg" viewBox="0 0 19.2 20.8"><style>.st0{fill-rule:evenodd;clip-rule:evenodd}</style><path class="st0" d="M15.2 12.8c-1.4 0-2.7.7-3.4 1.8l-4.3-2.4c.3-.5.5-1.1.5-1.8 0-.4-.1-.8-.2-1.1l4.5-2.5C13 7.5 14 8 15.2 8c2.2 0 4-1.8 4-4s-1.8-4-4-4-4 1.8-4 4c0 .4.1.8.2 1.1L6.9 7.7C6.2 6.9 5.2 6.4 4 6.4c-2.2 0-4 1.8-4 4s1.8 4 4 4c.9 0 1.7-.3 2.4-.8l4.8 2.8v.4c0 2.2 1.8 4 4 4s4-1.8 4-4-1.8-4-4-4zm0-11.2c1.3 0 2.4 1.1 2.4 2.4 0 1.3-1.1 2.4-2.4 2.4-1.3 0-2.4-1.1-2.4-2.4 0-1.3 1.1-2.4 2.4-2.4zM4 12.8c-1.3 0-2.4-1.1-2.4-2.4C1.6 9.1 2.7 8 4 8c1.3 0 2.4 1.1 2.4 2.4 0 1.3-1.1 2.4-2.4 2.4zm11.2 6.4c-1.3 0-2.4-1.1-2.4-2.4 0-1.3 1.1-2.4 2.4-2.4 1.3 0 2.4 1.1 2.4 2.4 0 1.3-1.1 2.4-2.4 2.4zm0 0"/></svg>